<mxfile host="app.diagrams.net" modified="2021-10-01T21:12:04.934Z" agent="5.0 (Macintosh; Intel Mac OS X 10_15_7) AppleWebKit/537.36 (KHTML, like Gecko) Chrome/93.0.4577.82 Safari/537.36" etag="bgC91s0cWdMblgfCa0J6" version="14.4.4" type="github">
  <diagram id="1JySIwQw2mA88cgI5saR" name="Page-1">
    <mxGraphModel dx="1014" dy="885" grid="1" gridSize="10" guides="1" tooltips="1" connect="1" arrows="1" fold="1" page="1" pageScale="1" pageWidth="850" pageHeight="1100" math="0" shadow="0">
      <root>
        <mxCell id="0" />
        <mxCell id="1" parent="0" />
        <mxCell id="kJOCRdSSNbZnIU2iSN7r-47" style="edgeStyle=orthogonalEdgeStyle;rounded=0;orthogonalLoop=1;jettySize=auto;html=1;entryX=0.5;entryY=0;entryDx=0;entryDy=0;startArrow=classic;startFill=1;" edge="1" parent="1" source="sKESzDODPC0slYuGFusg-41" target="sKESzDODPC0slYuGFusg-4">
          <mxGeometry relative="1" as="geometry">
            <Array as="points">
              <mxPoint x="430" y="460" />
              <mxPoint x="592" y="460" />
            </Array>
          </mxGeometry>
        </mxCell>
        <mxCell id="sKESzDODPC0slYuGFusg-41" value="Data Processors" style="rounded=1;whiteSpace=wrap;html=1;verticalAlign=top;fontStyle=1" parent="1" vertex="1">
          <mxGeometry x="200.08" y="90" width="460" height="260" as="geometry" />
        </mxCell>
        <mxCell id="kJOCRdSSNbZnIU2iSN7r-42" value="Auth" style="rounded=1;whiteSpace=wrap;html=1;" vertex="1" parent="1">
          <mxGeometry x="556.66" y="90" width="103.41532038482482" height="40" as="geometry" />
        </mxCell>
        <mxCell id="kJOCRdSSNbZnIU2iSN7r-4" value="LongTerm&lt;br&gt;Data" style="shape=cylinder3;whiteSpace=wrap;html=1;boundedLbl=1;backgroundOutline=1;size=15;" vertex="1" parent="1">
          <mxGeometry x="38.441697416974165" y="490" width="75.9132841328413" height="80" as="geometry" />
        </mxCell>
        <mxCell id="kJOCRdSSNbZnIU2iSN7r-38" value="LongTerm&lt;br&gt;Data" style="shape=cylinder3;whiteSpace=wrap;html=1;boundedLbl=1;backgroundOutline=1;size=15;" vertex="1" parent="1">
          <mxGeometry x="48.441697416974165" y="501" width="75.9132841328413" height="80" as="geometry" />
        </mxCell>
        <mxCell id="kJOCRdSSNbZnIU2iSN7r-39" value="LongTerm&lt;br&gt;Data" style="shape=cylinder3;whiteSpace=wrap;html=1;boundedLbl=1;backgroundOutline=1;size=15;" vertex="1" parent="1">
          <mxGeometry x="58.441697416974165" y="511" width="75.9132841328413" height="80" as="geometry" />
        </mxCell>
        <mxCell id="sKESzDODPC0slYuGFusg-27" value="" style="group" parent="1" vertex="1" connectable="0">
          <mxGeometry x="542.2700000000001" y="495" width="117.80999999999995" height="60" as="geometry" />
        </mxCell>
        <mxCell id="sKESzDODPC0slYuGFusg-4" value="Analytics" style="rounded=1;whiteSpace=wrap;html=1;" parent="sKESzDODPC0slYuGFusg-27" vertex="1">
          <mxGeometry y="20" width="100" height="40" as="geometry" />
        </mxCell>
        <mxCell id="sKESzDODPC0slYuGFusg-20" value="" style="outlineConnect=0;dashed=0;verticalLabelPosition=bottom;verticalAlign=top;align=center;html=1;shape=mxgraph.aws3.pinpoint;fillColor=#AD688B;gradientColor=none;" parent="sKESzDODPC0slYuGFusg-27" vertex="1">
          <mxGeometry x="87.81" width="30" height="30" as="geometry" />
        </mxCell>
        <mxCell id="sKESzDODPC0slYuGFusg-29" value="" style="group" parent="1" vertex="1" connectable="0">
          <mxGeometry x="80" y="370" width="125.37" height="60" as="geometry" />
        </mxCell>
        <mxCell id="kJOCRdSSNbZnIU2iSN7r-18" value="" style="group" vertex="1" connectable="0" parent="sKESzDODPC0slYuGFusg-29">
          <mxGeometry x="295.02" y="110" width="125.37" height="60" as="geometry" />
        </mxCell>
        <mxCell id="sKESzDODPC0slYuGFusg-2" value="File Storage" style="rounded=1;whiteSpace=wrap;html=1;" parent="kJOCRdSSNbZnIU2iSN7r-18" vertex="1">
          <mxGeometry y="20" width="110" height="40" as="geometry" />
        </mxCell>
        <mxCell id="sKESzDODPC0slYuGFusg-21" value="" style="outlineConnect=0;dashed=0;verticalLabelPosition=bottom;verticalAlign=top;align=center;html=1;shape=mxgraph.aws3.s3;fillColor=#E05243;gradientColor=none;" parent="kJOCRdSSNbZnIU2iSN7r-18" vertex="1">
          <mxGeometry x="90" width="35.37" height="43" as="geometry" />
        </mxCell>
        <mxCell id="sKESzDODPC0slYuGFusg-77" value="" style="group" parent="sKESzDODPC0slYuGFusg-29" vertex="1" connectable="0">
          <mxGeometry x="-39.99999999999994" y="-30" width="130" height="70" as="geometry" />
        </mxCell>
        <mxCell id="sKESzDODPC0slYuGFusg-47" value="Kinesis" style="rounded=1;whiteSpace=wrap;html=1;" parent="sKESzDODPC0slYuGFusg-77" vertex="1">
          <mxGeometry y="30" width="110" height="40" as="geometry" />
        </mxCell>
        <mxCell id="sKESzDODPC0slYuGFusg-65" value="" style="outlineConnect=0;dashed=0;verticalLabelPosition=bottom;verticalAlign=top;align=center;html=1;shape=mxgraph.aws3.kinesis;fillColor=#F58534;gradientColor=none;" parent="sKESzDODPC0slYuGFusg-77" vertex="1">
          <mxGeometry x="100" y="10" width="30" height="30.5" as="geometry" />
        </mxCell>
        <mxCell id="sKESzDODPC0slYuGFusg-92" value="Email/Push Notification" style="ellipse;shape=cloud;whiteSpace=wrap;html=1;fillColor=#ffffff;" parent="1" vertex="1">
          <mxGeometry x="722.19" y="310" width="115" height="65.5" as="geometry" />
        </mxCell>
        <mxCell id="sKESzDODPC0slYuGFusg-103" value="Third Party Egress" style="rounded=0;whiteSpace=wrap;html=1;fillColor=#ffffff;verticalAlign=middle;" parent="1" vertex="1">
          <mxGeometry x="697.19" y="250" width="140" height="40" as="geometry" />
        </mxCell>
        <mxCell id="kJOCRdSSNbZnIU2iSN7r-25" style="edgeStyle=orthogonalEdgeStyle;rounded=0;orthogonalLoop=1;jettySize=auto;html=1;startArrow=none;startFill=0;" edge="1" parent="1" source="sKESzDODPC0slYuGFusg-105" target="2VvnZxCOsJFV7gKtXtmo-6">
          <mxGeometry relative="1" as="geometry" />
        </mxCell>
        <mxCell id="sKESzDODPC0slYuGFusg-105" value="Third Party Ingress" style="rounded=0;whiteSpace=wrap;html=1;fillColor=#ffffff;verticalAlign=middle;" parent="1" vertex="1">
          <mxGeometry x="35.00000000000001" y="39" width="120" height="40" as="geometry" />
        </mxCell>
        <mxCell id="2VvnZxCOsJFV7gKtXtmo-5" value="" style="group" parent="1" vertex="1" connectable="0">
          <mxGeometry x="40" y="210" width="130" height="70" as="geometry" />
        </mxCell>
        <mxCell id="2VvnZxCOsJFV7gKtXtmo-6" value="API Gateway" style="rounded=1;whiteSpace=wrap;html=1;" parent="2VvnZxCOsJFV7gKtXtmo-5" vertex="1">
          <mxGeometry y="-35" width="110" height="40" as="geometry" />
        </mxCell>
        <mxCell id="kJOCRdSSNbZnIU2iSN7r-62" value="" style="outlineConnect=0;dashed=0;verticalLabelPosition=bottom;verticalAlign=top;align=center;html=1;shape=mxgraph.aws3.api_gateway;fillColor=#D9A741;gradientColor=none;" vertex="1" parent="2VvnZxCOsJFV7gKtXtmo-5">
          <mxGeometry x="94.35" y="-60" width="35.37" height="43" as="geometry" />
        </mxCell>
        <mxCell id="kJOCRdSSNbZnIU2iSN7r-16" value="" style="group" vertex="1" connectable="0" parent="1">
          <mxGeometry x="210.08000000000004" y="492.5" width="128.61" height="55" as="geometry" />
        </mxCell>
        <mxCell id="sKESzDODPC0slYuGFusg-58" value="GraphQL API" style="rounded=1;whiteSpace=wrap;html=1;" parent="kJOCRdSSNbZnIU2iSN7r-16" vertex="1">
          <mxGeometry y="15.714285714285714" width="120.00000000000006" height="39.285714285714285" as="geometry" />
        </mxCell>
        <mxCell id="sKESzDODPC0slYuGFusg-109" value="" style="outlineConnect=0;dashed=0;verticalLabelPosition=bottom;verticalAlign=top;align=center;html=1;shape=mxgraph.aws3.kinesis;fillColor=#F58534;gradientColor=none;" parent="kJOCRdSSNbZnIU2iSN7r-16" vertex="1">
          <mxGeometry x="97.36" width="31.250000000000014" height="29.464285714285715" as="geometry" />
        </mxCell>
        <mxCell id="kJOCRdSSNbZnIU2iSN7r-17" style="rounded=0;orthogonalLoop=1;jettySize=auto;html=1;startArrow=classic;startFill=1;exitX=0.98;exitY=0.57;exitDx=0;exitDy=0;exitPerimeter=0;" edge="1" parent="1" source="kJOCRdSSNbZnIU2iSN7r-39" target="sKESzDODPC0slYuGFusg-58">
          <mxGeometry relative="1" as="geometry" />
        </mxCell>
        <mxCell id="kJOCRdSSNbZnIU2iSN7r-21" value="" style="group" vertex="1" connectable="0" parent="1">
          <mxGeometry x="262.08" y="660" width="240.2" height="298" as="geometry" />
        </mxCell>
        <mxCell id="sKESzDODPC0slYuGFusg-3" value="Web Application" style="rounded=1;whiteSpace=wrap;html=1;verticalAlign=top;" parent="kJOCRdSSNbZnIU2iSN7r-21" vertex="1">
          <mxGeometry x="120.26" y="18" width="100" height="72" as="geometry" />
        </mxCell>
        <mxCell id="kJOCRdSSNbZnIU2iSN7r-7" value="Viewer" style="shape=umlActor;verticalLabelPosition=bottom;verticalAlign=top;html=1;outlineConnect=0;" vertex="1" parent="kJOCRdSSNbZnIU2iSN7r-21">
          <mxGeometry x="73.02000000000001" y="238" width="30" height="60" as="geometry" />
        </mxCell>
        <mxCell id="kJOCRdSSNbZnIU2iSN7r-10" value="" style="group" vertex="1" connectable="0" parent="kJOCRdSSNbZnIU2iSN7r-21">
          <mxGeometry x="102.95000000000002" y="108" width="135.18" height="83" as="geometry" />
        </mxCell>
        <mxCell id="sKESzDODPC0slYuGFusg-6" value="Hosting with CDN" style="rounded=1;whiteSpace=wrap;html=1;" parent="kJOCRdSSNbZnIU2iSN7r-10" vertex="1">
          <mxGeometry x="13.560000000000002" y="23" width="107.5" height="60" as="geometry" />
        </mxCell>
        <mxCell id="sKESzDODPC0slYuGFusg-32" value="" style="outlineConnect=0;dashed=0;verticalLabelPosition=bottom;verticalAlign=top;align=center;html=1;shape=mxgraph.aws3.cloudfront;fillColor=#F58536;gradientColor=none;" parent="kJOCRdSSNbZnIU2iSN7r-10" vertex="1">
          <mxGeometry x="99.81" width="35.37" height="43" as="geometry" />
        </mxCell>
        <mxCell id="kJOCRdSSNbZnIU2iSN7r-9" value="" style="outlineConnect=0;dashed=0;verticalLabelPosition=bottom;verticalAlign=top;align=center;html=1;shape=mxgraph.aws3.s3;fillColor=#E05243;gradientColor=none;" vertex="1" parent="kJOCRdSSNbZnIU2iSN7r-10">
          <mxGeometry width="35.37" height="43" as="geometry" />
        </mxCell>
        <mxCell id="sKESzDODPC0slYuGFusg-9" style="edgeStyle=orthogonalEdgeStyle;rounded=0;orthogonalLoop=1;jettySize=auto;html=1;" parent="kJOCRdSSNbZnIU2iSN7r-21" source="sKESzDODPC0slYuGFusg-3" target="sKESzDODPC0slYuGFusg-6" edge="1">
          <mxGeometry relative="1" as="geometry" />
        </mxCell>
        <mxCell id="kJOCRdSSNbZnIU2iSN7r-11" style="edgeStyle=orthogonalEdgeStyle;rounded=0;orthogonalLoop=1;jettySize=auto;html=1;" edge="1" parent="kJOCRdSSNbZnIU2iSN7r-21" target="sKESzDODPC0slYuGFusg-6">
          <mxGeometry relative="1" as="geometry">
            <mxPoint x="102.71000000000001" y="238" as="sourcePoint" />
          </mxGeometry>
        </mxCell>
        <mxCell id="kJOCRdSSNbZnIU2iSN7r-12" style="edgeStyle=orthogonalEdgeStyle;rounded=0;orthogonalLoop=1;jettySize=auto;html=1;entryX=0.5;entryY=1;entryDx=0;entryDy=0;exitX=0.5;exitY=0;exitDx=0;exitDy=0;exitPerimeter=0;" edge="1" parent="kJOCRdSSNbZnIU2iSN7r-21" target="sKESzDODPC0slYuGFusg-6">
          <mxGeometry relative="1" as="geometry">
            <mxPoint x="239.0100000000002" y="238" as="sourcePoint" />
          </mxGeometry>
        </mxCell>
        <mxCell id="kJOCRdSSNbZnIU2iSN7r-20" value="" style="shape=image;html=1;verticalAlign=top;verticalLabelPosition=bottom;labelBackgroundColor=#ffffff;imageAspect=0;aspect=fixed;image=https://cdn4.iconfinder.com/data/icons/logos-3/600/React.js_logo-128.png" vertex="1" parent="kJOCRdSSNbZnIU2iSN7r-21">
          <mxGeometry x="205.83" width="28" height="28" as="geometry" />
        </mxCell>
        <mxCell id="sKESzDODPC0slYuGFusg-66" value="" style="group" parent="kJOCRdSSNbZnIU2iSN7r-21" vertex="1" connectable="0">
          <mxGeometry x="120.25999999999999" y="30" width="119.94" height="60" as="geometry" />
        </mxCell>
        <mxCell id="sKESzDODPC0slYuGFusg-67" value="Auth" style="rounded=1;whiteSpace=wrap;html=1;" parent="sKESzDODPC0slYuGFusg-66" vertex="1">
          <mxGeometry y="20" width="103.41532038482482" height="40" as="geometry" />
        </mxCell>
        <mxCell id="sKESzDODPC0slYuGFusg-68" value="" style="outlineConnect=0;dashed=0;verticalLabelPosition=bottom;verticalAlign=top;align=center;html=1;shape=mxgraph.aws3.cognito;fillColor=#AD688B;gradientColor=none;" parent="sKESzDODPC0slYuGFusg-66" vertex="1">
          <mxGeometry x="87.08658558722091" y="10" width="32.85341441277909" height="33" as="geometry" />
        </mxCell>
        <mxCell id="kJOCRdSSNbZnIU2iSN7r-22" style="edgeStyle=orthogonalEdgeStyle;rounded=0;orthogonalLoop=1;jettySize=auto;html=1;startArrow=none;startFill=0;exitX=1;exitY=0.5;exitDx=0;exitDy=0;entryX=0.55;entryY=0.95;entryDx=0;entryDy=0;entryPerimeter=0;" edge="1" parent="1" source="sKESzDODPC0slYuGFusg-4" target="sKESzDODPC0slYuGFusg-92">
          <mxGeometry relative="1" as="geometry">
            <mxPoint x="785.44" y="420.0049999999999" as="targetPoint" />
          </mxGeometry>
        </mxCell>
        <mxCell id="kJOCRdSSNbZnIU2iSN7r-23" style="rounded=0;orthogonalLoop=1;jettySize=auto;html=1;entryX=0.5;entryY=1;entryDx=0;entryDy=0;startArrow=none;startFill=0;edgeStyle=orthogonalEdgeStyle;fillColor=#dae8fc;strokeColor=#6c8ebf;" edge="1" parent="1" source="sKESzDODPC0slYuGFusg-4" target="sKESzDODPC0slYuGFusg-47">
          <mxGeometry relative="1" as="geometry">
            <Array as="points">
              <mxPoint x="570" y="440" />
              <mxPoint x="95" y="440" />
            </Array>
          </mxGeometry>
        </mxCell>
        <mxCell id="kJOCRdSSNbZnIU2iSN7r-27" style="rounded=0;orthogonalLoop=1;jettySize=auto;html=1;entryX=0.5;entryY=1;entryDx=0;entryDy=0;startArrow=classic;startFill=1;edgeStyle=orthogonalEdgeStyle;" edge="1" parent="1" source="sKESzDODPC0slYuGFusg-58" target="sKESzDODPC0slYuGFusg-41">
          <mxGeometry relative="1" as="geometry">
            <Array as="points">
              <mxPoint x="270" y="460" />
              <mxPoint x="430" y="460" />
            </Array>
          </mxGeometry>
        </mxCell>
        <mxCell id="kJOCRdSSNbZnIU2iSN7r-31" style="edgeStyle=orthogonalEdgeStyle;rounded=0;orthogonalLoop=1;jettySize=auto;html=1;exitX=0.5;exitY=0;exitDx=0;exitDy=0;entryX=0.5;entryY=1;entryDx=0;entryDy=0;startArrow=none;startFill=0;" edge="1" parent="1" source="sKESzDODPC0slYuGFusg-3" target="sKESzDODPC0slYuGFusg-58">
          <mxGeometry relative="1" as="geometry">
            <Array as="points">
              <mxPoint x="430.08" y="678" />
              <mxPoint x="430.08" y="610" />
              <mxPoint x="270.08" y="610" />
            </Array>
          </mxGeometry>
        </mxCell>
        <mxCell id="kJOCRdSSNbZnIU2iSN7r-8" value="Owner/Administrator" style="shape=umlActor;verticalLabelPosition=bottom;verticalAlign=top;html=1;outlineConnect=0;" vertex="1" parent="1">
          <mxGeometry x="494.95" y="898" width="30" height="60" as="geometry" />
        </mxCell>
        <mxCell id="kJOCRdSSNbZnIU2iSN7r-32" style="edgeStyle=orthogonalEdgeStyle;rounded=0;orthogonalLoop=1;jettySize=auto;html=1;entryX=0.5;entryY=1;entryDx=0;entryDy=0;startArrow=none;startFill=0;" edge="1" parent="1" source="sKESzDODPC0slYuGFusg-3" target="sKESzDODPC0slYuGFusg-2">
          <mxGeometry relative="1" as="geometry">
            <Array as="points">
              <mxPoint x="430.08" y="640" />
              <mxPoint x="430.08" y="640" />
            </Array>
          </mxGeometry>
        </mxCell>
        <mxCell id="kJOCRdSSNbZnIU2iSN7r-33" style="edgeStyle=orthogonalEdgeStyle;rounded=0;orthogonalLoop=1;jettySize=auto;html=1;entryX=0.5;entryY=1;entryDx=0;entryDy=0;startArrow=none;startFill=0;" edge="1" parent="1" source="sKESzDODPC0slYuGFusg-3" target="sKESzDODPC0slYuGFusg-4">
          <mxGeometry relative="1" as="geometry">
            <Array as="points">
              <mxPoint x="430.08" y="610" />
              <mxPoint x="592.08" y="610" />
            </Array>
          </mxGeometry>
        </mxCell>
        <mxCell id="kJOCRdSSNbZnIU2iSN7r-36" style="edgeStyle=orthogonalEdgeStyle;rounded=0;orthogonalLoop=1;jettySize=auto;html=1;entryX=0.5;entryY=1;entryDx=0;entryDy=0;startArrow=classic;startFill=1;" edge="1" parent="1" source="sKESzDODPC0slYuGFusg-2" target="sKESzDODPC0slYuGFusg-41">
          <mxGeometry relative="1" as="geometry" />
        </mxCell>
        <mxCell id="kJOCRdSSNbZnIU2iSN7r-57" style="edgeStyle=orthogonalEdgeStyle;rounded=0;orthogonalLoop=1;jettySize=auto;html=1;startArrow=none;startFill=0;" edge="1" parent="1" source="kJOCRdSSNbZnIU2iSN7r-37" target="kJOCRdSSNbZnIU2iSN7r-56">
          <mxGeometry relative="1" as="geometry" />
        </mxCell>
        <mxCell id="kJOCRdSSNbZnIU2iSN7r-37" value="IngestDataConsumer" style="rounded=1;whiteSpace=wrap;html=1;" vertex="1" parent="1">
          <mxGeometry x="218.69" y="240" width="120" height="40" as="geometry" />
        </mxCell>
        <mxCell id="kJOCRdSSNbZnIU2iSN7r-14" value="" style="points=[[0,0,0],[0.25,0,0],[0.5,0,0],[0.75,0,0],[1,0,0],[0,1,0],[0.25,1,0],[0.5,1,0],[0.75,1,0],[1,1,0],[0,0.25,0],[0,0.5,0],[0,0.75,0],[1,0.25,0],[1,0.5,0],[1,0.75,0]];outlineConnect=0;fontColor=#232F3E;gradientColor=#4D72F3;gradientDirection=north;fillColor=#3334B9;strokeColor=#ffffff;dashed=0;verticalLabelPosition=bottom;verticalAlign=top;align=center;html=1;fontSize=12;fontStyle=0;aspect=fixed;shape=mxgraph.aws4.resourceIcon;resIcon=mxgraph.aws4.dynamodb;" vertex="1" parent="1">
          <mxGeometry x="114.35328413284134" y="505.21000000000004" width="29.58671586715866" height="29.58671586715866" as="geometry" />
        </mxCell>
        <mxCell id="kJOCRdSSNbZnIU2iSN7r-41" value="" style="group" vertex="1" connectable="0" parent="1">
          <mxGeometry x="590.0799999999999" y="60" width="119.94" height="60" as="geometry" />
        </mxCell>
        <mxCell id="kJOCRdSSNbZnIU2iSN7r-43" value="" style="outlineConnect=0;dashed=0;verticalLabelPosition=bottom;verticalAlign=top;align=center;html=1;shape=mxgraph.aws3.cognito;fillColor=#AD688B;gradientColor=none;" vertex="1" parent="kJOCRdSSNbZnIU2iSN7r-41">
          <mxGeometry x="52.18658558722091" y="13.5" width="32.85341441277909" height="33" as="geometry" />
        </mxCell>
        <mxCell id="kJOCRdSSNbZnIU2iSN7r-46" value="" style="group" vertex="1" connectable="0" parent="1">
          <mxGeometry x="359" y="140" width="132.2" height="50" as="geometry" />
        </mxCell>
        <mxCell id="kJOCRdSSNbZnIU2iSN7r-44" value="" style="rounded=1;whiteSpace=wrap;html=1;" vertex="1" parent="kJOCRdSSNbZnIU2iSN7r-46">
          <mxGeometry width="120" height="40" as="geometry" />
        </mxCell>
        <mxCell id="kJOCRdSSNbZnIU2iSN7r-45" value="Polling Jobs" style="rounded=1;whiteSpace=wrap;html=1;" vertex="1" parent="kJOCRdSSNbZnIU2iSN7r-46">
          <mxGeometry x="12.199999999999989" y="10" width="120" height="40" as="geometry" />
        </mxCell>
        <mxCell id="kJOCRdSSNbZnIU2iSN7r-48" style="edgeStyle=orthogonalEdgeStyle;rounded=0;orthogonalLoop=1;jettySize=auto;html=1;entryX=0;entryY=0.5;entryDx=0;entryDy=0;startArrow=none;startFill=0;exitX=0.5;exitY=1;exitDx=0;exitDy=0;" edge="1" parent="1" source="2VvnZxCOsJFV7gKtXtmo-6" target="kJOCRdSSNbZnIU2iSN7r-37">
          <mxGeometry relative="1" as="geometry" />
        </mxCell>
        <mxCell id="kJOCRdSSNbZnIU2iSN7r-49" style="edgeStyle=orthogonalEdgeStyle;rounded=0;orthogonalLoop=1;jettySize=auto;html=1;entryX=0;entryY=0.5;entryDx=0;entryDy=0;startArrow=none;startFill=0;" edge="1" parent="1" source="sKESzDODPC0slYuGFusg-47" target="kJOCRdSSNbZnIU2iSN7r-37">
          <mxGeometry relative="1" as="geometry">
            <Array as="points">
              <mxPoint x="95" y="260" />
            </Array>
          </mxGeometry>
        </mxCell>
        <mxCell id="kJOCRdSSNbZnIU2iSN7r-53" value="" style="group" vertex="1" connectable="0" parent="1">
          <mxGeometry x="491.2" y="230" width="140" height="60" as="geometry" />
        </mxCell>
        <mxCell id="kJOCRdSSNbZnIU2iSN7r-50" value="" style="rounded=1;whiteSpace=wrap;html=1;" vertex="1" parent="kJOCRdSSNbZnIU2iSN7r-53">
          <mxGeometry width="120" height="40" as="geometry" />
        </mxCell>
        <mxCell id="kJOCRdSSNbZnIU2iSN7r-51" value="" style="rounded=1;whiteSpace=wrap;html=1;" vertex="1" parent="kJOCRdSSNbZnIU2iSN7r-53">
          <mxGeometry x="10" y="10" width="120" height="40" as="geometry" />
        </mxCell>
        <mxCell id="kJOCRdSSNbZnIU2iSN7r-52" value="EgressPublishers" style="rounded=1;whiteSpace=wrap;html=1;" vertex="1" parent="kJOCRdSSNbZnIU2iSN7r-53">
          <mxGeometry x="20" y="20" width="120" height="40" as="geometry" />
        </mxCell>
        <mxCell id="kJOCRdSSNbZnIU2iSN7r-58" style="edgeStyle=orthogonalEdgeStyle;rounded=0;orthogonalLoop=1;jettySize=auto;html=1;entryX=0;entryY=0.75;entryDx=0;entryDy=0;startArrow=none;startFill=0;" edge="1" parent="1" source="kJOCRdSSNbZnIU2iSN7r-56" target="kJOCRdSSNbZnIU2iSN7r-50">
          <mxGeometry relative="1" as="geometry" />
        </mxCell>
        <mxCell id="kJOCRdSSNbZnIU2iSN7r-56" value="SNS" style="outlineConnect=0;dashed=0;verticalLabelPosition=bottom;verticalAlign=top;align=center;html=1;shape=mxgraph.aws3.sns;fillColor=#D9A741;gradientColor=none;" vertex="1" parent="1">
          <mxGeometry x="380" y="221.75" width="76.5" height="76.5" as="geometry" />
        </mxCell>
        <mxCell id="kJOCRdSSNbZnIU2iSN7r-59" style="edgeStyle=orthogonalEdgeStyle;rounded=0;orthogonalLoop=1;jettySize=auto;html=1;exitX=1;exitY=0.5;exitDx=0;exitDy=0;startArrow=none;startFill=0;" edge="1" parent="1" source="kJOCRdSSNbZnIU2iSN7r-52" target="sKESzDODPC0slYuGFusg-103">
          <mxGeometry relative="1" as="geometry" />
        </mxCell>
        <mxCell id="sKESzDODPC0slYuGFusg-45" value="" style="outlineConnect=0;dashed=0;verticalLabelPosition=bottom;verticalAlign=top;align=center;html=1;shape=mxgraph.aws3.lambda_function;fillColor=#F58534;gradientColor=none;" parent="1" vertex="1">
          <mxGeometry x="470" y="130" width="42.39" height="41" as="geometry" />
        </mxCell>
        <mxCell id="kJOCRdSSNbZnIU2iSN7r-60" value="" style="outlineConnect=0;dashed=0;verticalLabelPosition=bottom;verticalAlign=top;align=center;html=1;shape=mxgraph.aws3.lambda_function;fillColor=#F58534;gradientColor=none;" vertex="1" parent="1">
          <mxGeometry x="600" y="221.75" width="42.39" height="41" as="geometry" />
        </mxCell>
        <mxCell id="kJOCRdSSNbZnIU2iSN7r-61" value="" style="outlineConnect=0;dashed=0;verticalLabelPosition=bottom;verticalAlign=top;align=center;html=1;shape=mxgraph.aws3.lambda_function;fillColor=#F58534;gradientColor=none;" vertex="1" parent="1">
          <mxGeometry x="316.61" y="210" width="42.39" height="41" as="geometry" />
        </mxCell>
        <mxCell id="kJOCRdSSNbZnIU2iSN7r-63" value="" style="group" vertex="1" connectable="0" parent="1">
          <mxGeometry x="210" y="140" width="132.2" height="50" as="geometry" />
        </mxCell>
        <mxCell id="kJOCRdSSNbZnIU2iSN7r-64" value="" style="rounded=1;whiteSpace=wrap;html=1;" vertex="1" parent="kJOCRdSSNbZnIU2iSN7r-63">
          <mxGeometry width="120" height="40" as="geometry" />
        </mxCell>
        <mxCell id="kJOCRdSSNbZnIU2iSN7r-65" value="External API Requests" style="rounded=1;whiteSpace=wrap;html=1;" vertex="1" parent="kJOCRdSSNbZnIU2iSN7r-63">
          <mxGeometry x="12.199999999999989" y="10" width="120" height="40" as="geometry" />
        </mxCell>
        <mxCell id="kJOCRdSSNbZnIU2iSN7r-66" value="" style="outlineConnect=0;dashed=0;verticalLabelPosition=bottom;verticalAlign=top;align=center;html=1;shape=mxgraph.aws3.lambda_function;fillColor=#F58534;gradientColor=none;" vertex="1" parent="1">
          <mxGeometry x="310" y="120" width="42.39" height="41" as="geometry" />
        </mxCell>
      </root>
    </mxGraphModel>
  </diagram>
</mxfile>
